<svg width="41" height="41" viewBox="0 0 41 41" fill="none" xmlns="http://www.w3.org/2000/svg">
<mask id="mask0_186_100" style="mask-type:alpha" maskUnits="userSpaceOnUse" x="0" y="0" width="41" height="41">
<rect width="41" height="40.2917" fill="#D9D9D9"/>
</mask>
<g mask="url(#mask0_186_100)">
<path d="M9.99408 28.7079C11.4462 27.6166 13.0691 26.7562 14.8628 26.1267C16.6566 25.4971 18.5357 25.1823 20.5003 25.1823C22.4649 25.1823 24.3441 25.4971 26.1378 26.1267C27.9316 26.7562 29.5545 27.6166 31.0066 28.7079C32.0031 27.5607 32.779 26.2596 33.3342 24.8046C33.8894 23.3496 34.167 21.7967 34.167 20.1459C34.167 16.4245 32.8359 13.2557 30.1738 10.6396C27.5116 8.02339 24.2871 6.71531 20.5003 6.71531C16.7135 6.71531 13.489 8.02339 10.8269 10.6396C8.16473 13.2557 6.83366 16.4245 6.83366 20.1459C6.83366 21.7967 7.11126 23.3496 7.66647 24.8046C8.22168 26.2596 8.99755 27.5607 9.99408 28.7079ZM20.5003 21.8247C18.8205 21.8247 17.404 21.2581 16.2508 20.1249C15.0977 18.9917 14.5212 17.5997 14.5212 15.9488C14.5212 14.298 15.0977 12.906 16.2508 11.7728C17.404 10.6396 18.8205 10.073 20.5003 10.073C22.1802 10.073 23.5967 10.6396 24.7498 11.7728C25.9029 12.906 26.4795 14.298 26.4795 15.9488C26.4795 17.5997 25.9029 18.9917 24.7498 20.1249C23.5967 21.2581 22.1802 21.8247 20.5003 21.8247ZM20.5003 36.9341C18.1371 36.9341 15.9163 36.4934 13.8378 35.612C11.7594 34.7306 9.95137 33.5345 8.41387 32.0235C6.87637 30.5126 5.65918 28.7358 4.7623 26.6933C3.86543 24.6507 3.41699 22.4682 3.41699 20.1459C3.41699 17.8235 3.86543 15.641 4.7623 13.5985C5.65918 11.5559 6.87637 9.77916 8.41387 8.26822C9.95137 6.75728 11.7594 5.56112 13.8378 4.67974C15.9163 3.79836 18.1371 3.35767 20.5003 3.35767C22.8635 3.35767 25.0844 3.79836 27.1628 4.67974C29.2413 5.56112 31.0493 6.75728 32.5868 8.26822C34.1243 9.77916 35.3415 11.5559 36.2383 13.5985C37.1352 15.641 37.5837 17.8235 37.5837 20.1459C37.5837 22.4682 37.1352 24.6507 36.2383 26.6933C35.3415 28.7358 34.1243 30.5126 32.5868 32.0235C31.0493 33.5345 29.2413 34.7306 27.1628 35.612C25.0844 36.4934 22.8635 36.9341 20.5003 36.9341Z" fill="#4B5975"/>
</g>
</svg>
